# xmcd
#
# Track frame offsets:
#	150
#	11832
#	23001
#	34767
#	46876
#	56184
#	69026
#	79374
#	93092
#	105235
#
# Disc length: 1536 seconds
#
# Revision: 0
# Processed by: cddbd v1.5.1PL2 Copyright (c) Steve Scherf et al.
# Submitted via: EasyCDDAExtractor 9.1.3.1
#
DISCID=6f05fe0a
DTITLE=Loretta Lynn - On Tour, Vol. 1 (With Patsy Cline)
DYEAR=1996
DGENRE=Country
TTITLE0=Walking After Midnight
TTITLE1=The Other Woman
TTITLE2=Sweet Dreams ( Of You )
TTITLE3=Success
TTITLE4=Wine Women  And  Song
TTITLE5=I Fall To Pieces
TTITLE6=I M A Honky Tonk Girl
TTITLE7=She S Got You
TTITLE8=Blue Kentucky Girl
TTITLE9=Heartaches
EXTD=
EXTT0=
EXTT1=
EXTT2=
EXTT3=
EXTT4=
EXTT5=
EXTT6=
EXTT7=
EXTT8=
EXTT9=
PLAYORDER=
